# This file uses millimeters as units for non-parametric coordinates.

mtllib arduino_case_top_half.mtl
g default
v 9.887668 15.230686 6.982965
v 9.887668 15.230686 -7.082964
v 7.795792 15.230686 4.968582
v 8.890505 15.230686 4.968582
v 8.890505 15.230686 -5.068582
v 7.795792 15.230686 -5.068582
v 7.795792 15.230686 -6.163295
v 8.890505 15.230686 -6.163295
v 8.890505 15.230686 6.063295
v 7.795792 15.230686 6.063295
v 8.890505 16.095058 6.063295
v 7.795792 16.095058 6.063295
v 7.795792 16.095058 4.968582
v 8.890505 16.095058 4.968582
v 8.890505 16.095058 -5.068582
v 7.795792 16.095058 -5.068582
v 7.795792 16.095058 -6.163295
v 8.890505 16.095058 -6.163295
v 7.795792 15.230690 -5.068578
v 7.795792 15.230686 -5.068582
v 7.795792 15.230686 4.968582
v 7.795792 15.230690 4.968578
v 5.115709 15.230686 -0.000417
v 12.029602 12.651406 9.217476
v 12.200150 12.929007 9.431421
v 12.029602 12.651406 -9.317476
v 12.200150 12.929007 -9.531422
v 10.027511 16.297976 6.705923
v 10.027511 16.297976 -6.805923
v 5.107955 18.486908 -0.050000
v 5.121349 15.230686 6.982965
v 5.121349 15.230686 -7.082965
v 5.121349 15.230686 6.063295
v 5.121349 15.230686 -6.163295
v 5.121349 15.230690 -5.068578
v 5.121349 15.230690 4.968578
v 5.126099 12.651406 9.217476
v 5.125588 12.929007 9.431421
v 5.125588 12.929007 -9.531422
v 5.126099 12.651406 -9.317476
v 5.119384 16.297976 -6.805923
v 5.119384 16.297977 6.705923
v 5.121349 15.230686 6.705922
v 5.121349 15.230686 -6.805922
v 5.120367 16.092417 6.705922
v 5.114436 16.093534 -0.008560
v 5.120367 16.092415 -6.805923
v 5.120858 15.587165 6.705922
v 5.115072 15.587910 -0.004491
v 5.120858 15.587164 -6.805923
v 5.117402 16.092976 0.619995
v 5.117965 15.587538 0.620385
v 5.117402 16.092976 -0.676908
v 5.117965 15.587537 -0.676517
v 6.101201 16.091793 0.620052
v 6.098236 16.092348 -0.008558
v 6.101765 15.586355 0.620443
v 6.098872 15.586723 -0.004489
v 6.101201 16.091785 -0.676965
v 6.101765 15.586347 -0.676573
vt 0.375000 0.000000
vt 0.375000 0.250000
vt 0.499429 0.250000
vt 0.499406 0.000000
vt 0.125000 0.000000
vt 0.125000 0.250000
vt 0.375000 0.500000
vt 0.375000 0.750000
vt 0.499406 0.750000
vt 0.499429 0.500000
vt 0.625000 0.180936
vt 0.625000 0.250000
vt 0.375000 0.250000
vt 0.375000 0.180937
vt 0.875000 0.180933
vt 0.875000 0.250000
vt 0.625000 0.500000
vt 0.375000 0.500000
vt 0.125000 0.250000
vt 0.125010 0.180939
vt 0.375010 0.569062
vt 0.625000 0.569067
vt 0.625000 0.180933
vt 0.625000 0.250000
vt 0.375000 0.250000
vt 0.375002 0.180936
vt 0.874990 0.180938
vt 0.875000 0.250000
vt 0.625000 0.500000
vt 0.375000 0.500000
vt 0.125000 0.250000
vt 0.125018 0.180941
vt 0.375018 0.569059
vt 0.624994 0.569060
vt 0.000000 0.000000
vt 0.058448 0.998286
vt 0.185740 0.997858
vt 0.484307 0.997840
vt 0.501170 0.300561
vt 0.508440 -0.000041
vt 0.000000 0.000000
vt 0.021780 0.999568
vt 0.116152 0.999538
vt 0.883848 0.999617
vt 0.978220 0.999803
vt 1.000000 0.000000
vt 0.000000 0.000000
vt 0.000000 1.000000
vt 0.494778 0.999969
vt 0.494779 0.000042
vt 0.000000 0.000000
vt 0.000000 1.000000
vt 1.000000 1.000000
vt 1.000000 0.000000
vt 0.000000 0.000000
vt 0.499998 0.992554
vt 1.000000 0.000000
vt 0.000000 0.000000
vt 0.445981 1.851656
vt 0.494776 0.000007
vt 0.375000 0.000000
vt 0.492269 -0.003358
vt 0.125000 0.000000
vt 0.499335 0.375000
vt 0.375000 0.375000
vt 0.437500 0.312500
vt 0.499668 0.312500
vt 0.000000 0.000000
vt 0.500000 0.996999
vt 1.000000 0.000000
vt 0.000000 0.000000
vt 0.497749 0.995499
vt 0.497342 0.000000
vt 0.515693 0.998670
vt 0.814260 0.998600
vt 0.941553 0.999008
vt 1.000000 0.000000
vt 0.491560 0.000000
vt 0.498830 0.300840
vt 0.505221 0.999958
vt 1.000000 1.000000
vt 1.000000 0.000000
vt 0.505222 0.000031
vt 0.694663 2.024651
vt 1.000000 0.000000
vt 0.505225 0.000008
vt 0.375000 0.750000
vt 0.492244 0.748488
vt 0.502251 0.995499
vt 1.000000 0.000000
vt 0.502658 0.000000
vt 0.000000 0.000000
vt 0.152227 3.010605
vt 0.603391 1.766761
vt 1.054555 0.522917
vt 1.000000 0.000000
vt 0.000000 0.000000
vt -0.146345 0.631122
vt -0.100440 0.715833
vt -0.075330 0.536875
vt -0.050220 0.357917
vt 1.109110 1.045834
vt 1.148698 0.936664
vt 1.081832 0.784375
vt 0.418671 1.222986
vt 0.887562 2.088055
vt 1.000000 0.000000
vt 0.152227 3.010605
vt 0.167177 3.306267
vt 0.624504 2.045321
vt 0.603391 1.766761
vt 0.400595 1.414996
vt 0.167177 3.306267
vt 0.182139 3.602184
vt 0.883225 1.668763
vt 1.017280 1.299066
vt 0.624504 2.045321
vt 0.006040 0.912331
vt 0.161969 1.200081
vt 0.865468 2.498355
vt 0.876520 2.293117
vt 0.400595 1.414996
vt 0.876520 2.293117
vt 0.887562 2.088055
vt 0.418671 1.222986
vn 0.000000 -0.610439 0.792064
vn 0.000000 -0.610439 0.792064
vn 0.000000 -0.610439 0.792064
vn 0.000000 -0.610439 0.792064
vn 0.852046 -0.523467 0.000000
vn 0.852046 -0.523467 0.000000
vn 0.852046 -0.523467 0.000000
vn 0.852046 -0.523467 0.000000
vn 0.000000 -0.610439 -0.792064
vn 0.000000 -0.610439 -0.792064
vn 0.000000 -0.610439 -0.792064
vn 0.000000 -0.610439 -0.792064
vn 0.000000 0.000000 -1.000000
vn 0.000000 0.000000 -1.000000
vn 0.000000 0.000000 -1.000000
vn 0.000000 0.000000 -1.000000
vn 1.000000 0.000000 0.000000
vn 1.000000 0.000000 0.000000
vn 1.000000 0.000000 0.000000
vn 1.000000 0.000000 0.000000
vn 0.000000 -1.000000 0.000000
vn 0.000000 -1.000000 0.000000
vn 0.000000 -1.000000 0.000000
vn 0.000000 -1.000000 0.000000
vn -1.000000 0.000000 0.000000
vn -1.000000 0.000000 0.000000
vn -1.000000 0.000000 0.000000
vn -1.000000 0.000000 0.000000
vn 0.000000 0.000000 1.000000
vn 0.000000 0.000000 1.000000
vn 0.000000 0.000000 1.000000
vn 0.000000 0.000000 1.000000
vn 0.000000 0.000000 -1.000000
vn 0.000000 0.000000 -1.000000
vn 0.000000 0.000000 -1.000000
vn 0.000000 0.000000 -1.000000
vn 1.000000 0.000000 0.000000
vn 1.000000 0.000000 0.000000
vn 1.000000 0.000000 0.000000
vn 1.000000 0.000000 0.000000
vn 0.000000 -1.000000 0.000000
vn 0.000000 -1.000000 0.000000
vn 0.000000 -1.000000 0.000000
vn 0.000000 -1.000000 0.000000
vn -1.000000 0.000000 0.000000
vn -1.000000 0.000000 0.000000
vn -1.000000 0.000000 0.000000
vn -1.000000 0.000000 0.000000
vn 0.000000 0.000000 1.000000
vn 0.000000 0.000000 1.000000
vn 0.000000 0.000000 1.000000
vn 0.000000 0.000000 1.000000
vn 0.000000 -1.000000 0.000000
vn 0.000000 -1.000000 0.000000
vn 0.000000 -1.000000 0.000000
vn 0.000000 -1.000000 0.000000
vn 0.000000 -1.000000 0.000000
vn 0.000000 -1.000000 0.000000
vn 0.000000 -1.000000 0.000000
vn 0.000000 -1.000000 0.000000
vn 0.000000 -1.000000 0.000000
vn 0.000000 -1.000000 0.000000
vn 0.000000 -1.000000 0.000000
vn 0.000000 -1.000000 0.000000
vn 0.000000 -1.000000 0.000003
vn 0.000000 -1.000000 0.000003
vn 0.000000 -1.000000 0.000003
vn 0.000000 -1.000000 0.000003
vn 0.000000 -1.000000 0.000000
vn 0.000000 -1.000000 0.000000
vn 0.000000 -1.000000 0.000000
vn 0.000000 -1.000000 0.000000
vn 0.000000 -1.000000 0.000000
vn 0.000000 -1.000000 0.000000
vn 0.000000 -1.000000 0.000000
vn 0.000000 -1.000000 -0.000001
vn 0.000000 -1.000000 -0.000001
vn 0.000000 -1.000000 -0.000001
vn 0.000000 -0.654786 -0.755814
vn 0.000000 -0.654786 -0.755814
vn 0.000000 -0.654786 -0.755814
vn 0.000000 -0.654786 -0.755814
vn -0.769315 -0.638869 0.000000
vn -0.769315 -0.638869 0.000000
vn -0.769315 -0.638869 0.000000
vn -0.769315 -0.638869 0.000000
vn 0.000000 0.628953 -0.777444
vn 0.000000 0.628953 -0.777444
vn 0.000000 0.628953 -0.777444
vn 0.000000 0.628953 -0.777444
vn 0.840398 0.541970 0.000000
vn 0.840398 0.541970 0.000000
vn 0.840398 0.541970 0.000000
vn 0.840398 0.541970 0.000000
vn 0.000000 0.628952 0.777444
vn 0.000000 0.628952 0.777444
vn 0.000000 0.628952 0.777444
vn 0.000000 0.628953 0.777444
vn 0.406520 0.913642 0.000000
vn 0.406520 0.913642 0.000000
vn 0.406520 0.913642 0.000000
vn 0.000000 0.951313 0.308227
vn 0.000000 0.951313 0.308227
vn 0.000000 0.951313 0.308227
vn 0.000000 -1.000000 0.000000
vn 0.000000 -1.000000 0.000000
vn 0.000000 -1.000000 0.000000
vn 0.000000 -1.000000 0.000000
vn 0.000000 -1.000000 0.000000
vn 0.000000 -1.000000 0.000000
vn 0.000000 -1.000000 -0.000003
vn 0.000000 -1.000000 -0.000003
vn 0.000000 -1.000000 -0.000003
vn 0.000000 -1.000000 -0.000003
vn 0.000000 -1.000000 0.000001
vn 0.000000 -1.000000 0.000001
vn 0.000000 -1.000000 0.000001
vn 0.000000 -0.654786 0.755814
vn 0.000000 -0.654786 0.755814
vn 0.000000 -0.654786 0.755814
vn 0.000000 -0.654786 0.755814
vn 0.000000 0.951313 -0.308227
vn 0.000000 0.951313 -0.308227
vn 0.000000 0.951313 -0.308227
vn -0.999998 -0.001841 0.000001
vn -0.999998 -0.001841 0.000001
vn -0.999998 -0.001841 0.000001
vn -0.999998 -0.001841 0.000001
vn -0.999998 -0.001841 -0.000001
vn -0.999998 -0.001841 -0.000001
vn -0.999998 -0.001841 -0.000001
vn -0.999998 -0.001841 -0.000001
vn -0.999993 -0.003785 0.000824
vn -0.999993 -0.003785 0.000824
vn -0.999994 -0.003375 0.000772
vn -0.999995 -0.003041 0.000669
vn -0.999993 -0.003781 0.000817
vn -0.999992 -0.003796 -0.000808
vn -0.999996 -0.001840 0.001934
vn -1.000000 -0.000438 -0.000681
vn -1.000000 -0.000796 -0.000506
vn -0.999995 -0.003055 -0.000663
vn -1.000000 -0.000413 0.000690
vn -0.999996 -0.001842 -0.001936
vn -1.000000 -0.000786 0.000511
vn -0.999994 -0.003389 -0.000764
vn -0.999993 -0.003801 -0.000815
vn -0.999993 -0.003801 -0.000815
vn -0.999988 -0.001167 0.004672
vn -0.999988 -0.001167 0.004672
vn -0.999988 -0.001167 0.004672
vn -0.999988 -0.001167 0.004672
vn -1.000000 -0.000622 -0.000699
vn -1.000000 -0.000325 0.000852
vn -1.000000 -0.000325 0.000852
vn -1.000000 -0.000325 0.000852
vn -1.000000 -0.000325 0.000852
vn -1.000000 -0.000606 0.000707
vn -1.000000 -0.000353 -0.000840
vn -1.000000 -0.000353 -0.000840
vn -1.000000 -0.000353 -0.000840
vn -1.000000 -0.000353 -0.000840
vn -0.999990 -0.001208 -0.004369
vn -0.999990 -0.001208 -0.004369
vn -0.999990 -0.001208 -0.004369
vn -0.999990 -0.001208 -0.004369
vn -0.001206 -0.999999 0.000003
vn -0.001206 -0.999999 0.000003
vn -0.001204 -0.999999 -0.000879
vn -0.001204 -0.999999 -0.000879
vn 0.000058 -0.000773 -1.000000
vn 0.000058 -0.000773 -1.000000
vn 0.000058 -0.000773 -1.000000
vn 0.000058 -0.000773 -1.000000
vn 0.001204 0.999999 0.000586
vn 0.001204 0.999999 0.000586
vn 0.001206 0.999999 -0.000004
vn 0.001206 0.999999 -0.000004
vn 0.000058 0.000775 1.000000
vn 0.000058 0.000775 1.000000
vn 0.000058 0.000775 1.000000
vn 0.000058 0.000775 1.000000
vn -0.001208 -0.999999 0.000833
vn -0.001208 -0.999999 0.000833
vn 0.001208 0.999999 -0.000552
vn 0.001208 0.999999 -0.000552
s off
g polySurface5 export_top_A2
usemtl initialShadingGroup
f 24/1/1 25/2/2 38/3/3 37/4/4
f 26/5/5 27/6/6 25/2/7 24/1/8
f 27/7/9 26/8/10 40/9/11 39/10/12
f 10/11/13 12/12/14 11/13/15 9/14/16
f 3/15/17 13/16/18 12/12/19 10/11/20
f 11/13/21 12/12/22 13/17/23 14/18/24
f 9/14/25 11/13/26 14/19/27 4/20/28
f 4/21/29 14/18/30 13/17/31 3/22/32
f 6/23/33 16/24/34 15/25/35 5/26/36
f 7/27/37 17/28/38 16/24/39 6/23/40
f 15/25/41 16/24/42 17/29/43 18/30/44
f 5/26/45 15/25/46 18/31/47 8/32/48
f 8/33/49 18/30/50 17/29/51 7/34/52
f 2/35/53 8/36/54 7/37/55 34/38/56 44/39/57 32/40/58
f 1/41/59 9/42/60 4/43/61 5/44/62 8/45/63 2/46/64
f 7/47/65 19/48/66 35/49/67 34/50/68
f 4/51/69 21/52/70 20/53/71 5/54/72
f 21/55/73 23/56/74 20/57/75
f 19/58/76 23/59/77 35/60/78
f 1/61/79 24/1/80 37/4/81 31/62/82
f 2/63/83 26/5/84 24/1/85 1/61/86
f 27/7/87 39/10/88 41/64/89 29/65/90
f 27/6/91 29/65/92 28/66/93 25/2/94
f 25/2/95 28/66/96 42/67/97 38/3/98
f 29/68/99 30/69/100 28/70/101
f 28/71/102 30/72/103 42/73/104
f 33/74/105 10/75/106 9/76/107 1/77/108 31/78/109 43/79/110
f 36/80/111 22/81/112 10/82/113 33/83/114
f 23/84/115 22/85/116 36/86/117
f 40/9/118 26/8/119 2/87/120 32/88/121
f 30/89/122 29/90/123 41/91/124
f 37/4/125 38/3/126 42/67/127 31/62/128
f 32/88/129 41/64/130 39/10/131 40/9/132
s 1
f 30/92/133 46/93/134 51/94/135 45/95/136 42/96/137
s 2
f 41/97/138 32/98/139 44/99/140 50/100/141 47/101/142
s 1
f 43/102/143 31/103/144 42/96/137 45/95/136 48/104/145
s 2
f 41/97/138 47/101/142 53/105/146 46/106/147 30/107/148
s off
f 56/108/149 58/109/150 57/110/151 55/111/152
s 2
f 47/101/142 50/100/141 54/112/153 53/105/146
s 1
f 49/113/154 23/114/155 36/115/156 33/116/157 43/102/143 48/104/145 52/117/158
s 2
f 50/100/141 44/99/140 34/118/159 35/119/160 23/120/161 49/121/162 54/112/153
s 1
f 52/117/158 48/104/145 45/95/136 51/94/135
s off
f 60/122/163 58/123/164 56/124/165 59/125/166
s 3
f 46/93/167 56/108/168 55/111/169 51/94/170
s off
f 51/94/171 55/111/172 57/110/173 52/117/174
s 4
f 52/117/175 57/110/176 58/109/177 49/113/178
s off
f 54/112/179 60/122/180 59/125/181 53/105/182
s 3
f 53/105/183 59/125/184 56/124/168 46/106/167
s 4
f 49/121/178 58/123/177 60/122/185 54/112/186
