# This file uses millimeters as units for non-parametric coordinates.

mtllib bridge.mtl
g default
v 4.145379 16.071817 0.602883
v 4.142480 16.072329 -0.009080
v 4.145931 15.606468 0.603264
v 4.143102 15.606808 -0.005118
v 4.145380 16.071810 -0.659785
v 4.145931 15.606461 -0.659404
v 5.109349 16.073421 -0.009082
v 5.109349 16.072906 0.602828
v 5.109349 15.607557 0.603208
v 5.109349 15.607900 -0.005120
v 5.109349 15.607556 -0.659350
v 5.109349 16.072906 -0.659731
v 6.073320 16.071817 0.602883
v 6.076219 16.072329 -0.009080
v 6.072768 15.606468 0.603264
v 6.075597 15.606808 -0.005118
v 6.073319 16.071810 -0.659785
v 6.072768 15.606461 -0.659404
vt 0.152227 3.010605
vt 0.603391 1.766761
vt 0.624504 2.045321
vt 0.167177 3.306267
vt 0.400595 1.414996
vt 0.418671 1.222986
vt 0.887562 2.088055
vt 0.876520 2.293117
vt 0.152227 3.010605
vt 0.603391 1.766761
vt 0.624504 2.045321
vt 0.167177 3.306267
vt 0.400595 1.414996
vt 0.418671 1.222986
vt 0.887562 2.088055
vt 0.876520 2.293117
vt 0.152227 3.010605
vt 0.603391 1.766761
vt 0.624504 2.045321
vt 0.167177 3.306267
vt 0.400595 1.414996
vt 0.418671 1.222986
vt 0.887562 2.088055
vt 0.876520 2.293117
vt 0.152227 3.010605
vt 0.603391 1.766761
vt 0.624504 2.045321
vt 0.167177 3.306267
vt 0.400595 1.414996
vt 0.418671 1.222986
vt 0.887562 2.088055
vt 0.876520 2.293117
vn -0.999988 -0.001239 0.004693
vn -0.999988 -0.001239 0.004693
vn -0.999988 -0.001239 0.004693
vn -0.999988 -0.001239 0.004693
vn -0.999990 -0.001282 -0.004389
vn -0.999990 -0.001282 -0.004389
vn -0.999990 -0.001282 -0.004389
vn -0.999990 -0.001282 -0.004389
vn -0.000000 1.000000 -0.000003
vn -0.001132 0.999999 -0.000003
vn -0.001130 0.999999 0.000843
vn -0.000000 1.000000 0.000843
vn 0.000000 0.000817 1.000000
vn 0.000057 0.000817 1.000000
vn 0.000057 0.000817 1.000000
vn 0.000000 0.000817 1.000000
vn 0.000000 -1.000000 -0.000561
vn 0.001130 -0.999999 -0.000561
vn 0.001132 -0.999999 0.000004
vn 0.000000 -1.000000 0.000004
vn 0.000000 -0.000820 -1.000000
vn 0.000057 -0.000820 -1.000000
vn 0.000057 -0.000820 -1.000000
vn 0.000000 -0.000820 -1.000000
vn 0.000000 1.000000 -0.000799
vn -0.001134 0.999999 -0.000799
vn 0.001134 -0.999999 0.000529
vn -0.000000 -1.000000 0.000529
vn 0.999988 -0.001240 0.004693
vn 0.999988 -0.001240 0.004693
vn 0.999988 -0.001240 0.004693
vn 0.999988 -0.001240 0.004693
vn 0.999990 -0.001280 -0.004389
vn 0.999990 -0.001280 -0.004389
vn 0.999990 -0.001280 -0.004389
vn 0.999990 -0.001280 -0.004389
vn 0.001130 0.999999 0.000843
vn 0.001132 0.999999 -0.000003
vn -0.000057 0.000817 1.000000
vn -0.000057 0.000817 1.000000
vn -0.001132 -0.999999 0.000004
vn -0.001130 -0.999999 -0.000561
vn -0.000057 -0.000820 -1.000000
vn -0.000057 -0.000820 -1.000000
vn 0.001134 0.999999 -0.000799
vn -0.001134 -0.999999 0.000529
s off
g polySurface8
usemtl initialShadingGroup
f 2/1/1 4/4/2 3/3/3 1/2/4
f 6/5/5 4/8/6 2/7/7 5/6/8
s 1
f 7/9/9 2/1/10 1/2/11 8/10/12
s 2
f 8/10/13 1/2/14 3/3/15 9/11/16
s 3
f 9/11/17 3/3/18 4/4/19 10/12/20
s 4
f 11/13/21 6/5/22 5/6/23 12/14/24
s 1
f 12/14/25 5/6/26 2/7/10 7/15/9
s 3
f 10/16/20 4/8/19 6/5/27 11/13/28
s off
f 14/17/29 13/18/30 15/19/31 16/20/32
f 18/21/33 17/22/34 14/23/35 16/24/36
s 1
f 7/25/9 8/26/12 13/18/37 14/17/38
s 2
f 8/26/13 9/27/16 15/19/39 13/18/40
s 3
f 9/27/17 10/28/20 16/20/41 15/19/42
s 4
f 11/29/21 12/30/24 17/22/43 18/21/44
s 1
f 12/30/25 7/31/9 14/23/38 17/22/45
s 3
f 10/32/20 11/29/28 18/21/46 16/24/41
